<svg xmlns="http://www.w3.org/2000/svg" xmlns:xlink="http://www.w3.org/1999/xlink" version="1.1" x="0px" y="0px" viewBox="0 0 35.313 50" style="enable-background:new 0 0 35.313 40;" xml:space="preserve"><g><path d="M26.945,24.773c0.002,2.668,0.447,4.968,1.232,6.69c0.772,1.684,1.965,2.995,3.662,3.029c0.773,0,1.525-0.315,2.185-0.846   c0.89-0.685,1.312-1.727,1.288-2.696c-0.022-1.517-0.694-2.979-1.294-4.741c-0.61-1.752-1.194-3.748-1.219-6.086   c-0.001-0.063-0.004-0.084-0.004-0.084c0.007-1.222,0.257-1.897,0.571-2.784c0.317-0.877,0.693-1.962,0.688-3.538   c0-0.387-0.021-0.806-0.067-1.261c0.113-0.006,0.227-0.013,0.34-0.02c-0.169-2.953-1.071-5.798-2.598-8.288   c-0.394,0.242-0.788,0.484-1.182,0.726c-0.565-0.918-1.22-1.785-1.964-2.584c-0.508,0.473-1.016,0.942-1.523,1.415   c0.649,0.699,1.222,1.454,1.713,2.258c0.37,0.602,0.692,1.229,0.97,1.875c0.643,1.512,1.027,3.133,1.123,4.798   c0.373-0.021,0.748-0.044,1.121-0.064c0.045,0.427,0.067,0.809,0.067,1.146c-0.007,1.283-0.259,1.982-0.571,2.864   c-0.314,0.869-0.692,1.929-0.688,3.458c0.002,0.064,0.003,0.103,0.003,0.119c0.026,2.649,0.697,4.889,1.33,6.708   c0.646,1.811,1.205,3.255,1.183,4.084c-0.024,0.531-0.104,0.758-0.54,1.138c-0.404,0.319-0.701,0.401-0.933,0.402   c-0.447,0.033-1.204-0.462-1.842-1.859c-0.628-1.362-1.057-3.422-1.054-5.858c0-0.486,0.018-0.989,0.054-1.505   c0.108-1.644,0.157-3.068,0.16-4.309c-0.015-3.913-0.467-6-1.335-7.313c-0.614-0.952-1.508-1.291-2.224-1.4V4c0-2.209-1.79-4-4-4   H7.2c-2.21,0-4,1.791-4,4v32H0v4h28.8v-4h-3.2V12.282c0.189,0.066,0.352,0.198,0.569,0.486c0.466,0.65,1.001,2.444,0.987,6.19   c0.002,1.185-0.048,2.567-0.154,4.174C26.964,23.69,26.945,24.239,26.945,24.773z M22.4,15.2h-16v-8h16V15.2z"/></g><text x="0" y="55" fill="#000000" font-size="5px" font-weight="bold" font-family="'Helvetica Neue', Helvetica, Arial-Unicode, Arial, Sans-serif">Created by Gan Khoon Lay</text><text x="0" y="60" fill="#000000" font-size="5px" font-weight="bold" font-family="'Helvetica Neue', Helvetica, Arial-Unicode, Arial, Sans-serif">from the Noun Project</text></svg>