<svg xmlns="http://www.w3.org/2000/svg" xmlns:xlink="http://www.w3.org/1999/xlink" version="1.1" x="0px" y="0px" viewBox="0 0 85 106.25" enable-background="new 0 0 85 85" xml:space="preserve"><g><path d="M65.8,29h-8.3c-1.3,0-2.4,1.1-2.4,2.4c0,1.3,1.1,2.4,2.4,2.4h8.3c1,0,1.8,0.8,1.8,1.8v31.7c0,1-0.8,1.8-1.8,1.8H19.3   c-1,0-1.8-0.8-1.8-1.8V35.7c0-1,0.8-1.8,1.8-1.8h8.3c1.3,0,2.4-1.1,2.4-2.4c0-1.3-1.1-2.4-2.4-2.4h-8.3c-3.7,0-6.7,3-6.7,6.6v31.7   c0,3.7,3,6.6,6.7,6.6h46.4c3.7,0,6.6-3,6.6-6.6V35.7C72.4,32,69.4,29,65.8,29z"/><path d="M63.9,39.6c-0.8-1.1-2.3-1.3-3.4-0.5l-18,13.3l-18-13.3c-1.1-0.8-2.6-0.6-3.4,0.5c-0.8,1.1-0.6,2.6,0.5,3.4l10.2,7.5   L21.5,59c-1,0.9-1.2,2.4-0.3,3.4c0.5,0.6,1.2,0.9,1.9,0.9c0.5,0,1.1-0.2,1.5-0.6l11.2-9.2l5.2,3.9c0.4,0.3,0.9,0.5,1.5,0.5   c0.5,0,1-0.2,1.5-0.5l5.2-3.9l11.2,9.2c0.5,0.4,1,0.6,1.5,0.6c0.7,0,1.4-0.3,1.9-0.9c0.9-1,0.7-2.6-0.3-3.4l-10.3-8.4L63.4,43   C64.5,42.2,64.7,40.7,63.9,39.6z"/><path d="M40.6,40.6c1,1.2,2.9,1.2,3.8,0l9.7-12.3c0.7-0.8,0.1-2-1-2h-6V12.5c0-0.8-0.7-1.5-1.5-1.5h-6.4c-0.8,0-1.5,0.7-1.5,1.5   v13.7h-6c-1.1,0-1.6,1.2-1,2L40.6,40.6z"/></g><text x="0" y="100" fill="#000000" font-size="5px" font-weight="bold" font-family="'Helvetica Neue', Helvetica, Arial-Unicode, Arial, Sans-serif">Created by Dirtyworks</text><text x="0" y="105" fill="#000000" font-size="5px" font-weight="bold" font-family="'Helvetica Neue', Helvetica, Arial-Unicode, Arial, Sans-serif">from the Noun Project</text></svg>