<svg xmlns="http://www.w3.org/2000/svg" xmlns:xlink="http://www.w3.org/1999/xlink" version="1.1" x="0px" y="0px" viewBox="0 0 32 40" enable-background="new 0 0 32 32" xml:space="preserve"><g><path d="M16,6c-1.654,0-3-1.346-3-3s1.346-3,3-3s3,1.346,3,3S17.654,6,16,6z M16,2c-0.552,0-1,0.448-1,1s0.448,1,1,1s1-0.448,1-1   S16.552,2,16,2z"/></g><g><path d="M16,32c-2.757,0-5-2.243-5-5c0-1.781,0.958-3.439,2.501-4.327c1.529-0.879,3.469-0.88,4.998,0.001   C20.042,23.561,21,25.219,21,27C21,29.757,18.757,32,16,32z M16,24c-0.527,0-1.032,0.137-1.501,0.406   C13.574,24.938,13,25.933,13,27c0,1.654,1.346,3,3,3s3-1.346,3-3c0-1.067-0.574-2.062-1.499-2.593C17.032,24.137,16.527,24,16,24z"/></g><path d="M18,15h-4c-0.553,0-1,0.447-1,1v7.54c0,0.357,0.19,0.688,0.5,0.866c0.308,0.177,0.689,0.178,0.999,0  c0.938-0.539,2.064-0.539,3.002,0c0.154,0.089,0.326,0.134,0.499,0.134s0.346-0.045,0.5-0.134c0.31-0.179,0.5-0.509,0.5-0.866V16  C19,15.447,18.553,15,18,15z"/><path d="M20,4h-8c-0.553,0-1,0.447-1,1v11c0,0.553,0.447,1,1,1h8c0.553,0,1-0.447,1-1V5C21,4.447,20.553,4,20,4z"/><text x="0" y="47" fill="#000000" font-size="5px" font-weight="bold" font-family="'Helvetica Neue', Helvetica, Arial-Unicode, Arial, Sans-serif">Created by AmruID</text><text x="0" y="52" fill="#000000" font-size="5px" font-weight="bold" font-family="'Helvetica Neue', Helvetica, Arial-Unicode, Arial, Sans-serif">from the Noun Project</text></svg>