<svg xmlns="http://www.w3.org/2000/svg" xmlns:xlink="http://www.w3.org/1999/xlink" version="1.1" x="0px" y="0px" viewBox="0 0 100 125" enable-background="new 0 0 100 100" xml:space="preserve"><path d="M94.992,61.063c0.111-2.366-0.932-4.604-3.1-6.667c1.972-4.779,2.027-8.676,0.161-11.596  c-2.308-3.611-7.345-5.442-14.972-5.442c-3.209,0-6.243,0.325-8.377,0.629c2.045-5.439,5.689-17.291,1.688-24.052  c-1.751-2.957-4.67-4.617-8.677-4.933c-0.044-0.004-0.088-0.006-0.132-0.006c-2.77,0-3.72,3.276-5.294,8.704  c-2.554,8.804-6.347,21.859-18.825,27.33v-4.599c0-0.931-0.754-1.685-1.685-1.685H6.685C5.754,38.747,5,39.501,5,40.432v48.888  c0,0.931,0.754,1.685,1.685,1.685H35.78c0.931,0,1.685-0.754,1.685-1.685v-4.881l5.581-0.049c6.884,5.764,14.112,6.12,15.397,6.137  c0.608,0.056,4.771,0.416,9.899,0.416c12.198,0,19.146-1.909,21.242-5.835c0.927-1.735,0.861-3.709-0.188-5.882  c2.343-1.461,3.698-3.272,4.036-5.399c0.407-2.559-0.83-4.869-1.858-6.283C92.963,66.246,94.855,63.963,94.992,61.063z   M34.096,47.494V82.77v4.865H8.369V42.116h25.727V47.494z M88.254,65.921c-0.425,0.282-0.696,0.744-0.742,1.252  c-0.046,0.509,0.143,1.013,0.51,1.367c0.687,0.663,2.401,2.813,2.084,4.768c-0.229,1.406-1.492,2.667-3.753,3.746  c-0.441,0.21-0.77,0.603-0.898,1.074c-0.13,0.472-0.047,0.977,0.225,1.383c1.136,1.694,1.449,3.044,0.935,4.01  c-1.354,2.538-8.185,4.054-18.271,4.054c-5.271,0-9.611-0.404-9.653-0.408c-0.053-0.005-0.133-0.008-0.186-0.008  c-0.294,0-7.284-0.064-13.73-5.725c-0.308-0.27-0.702-0.418-1.111-0.418c-0.004,0-0.01,0-0.015,0l-6.183,0.055V48.678  c15.013-5.736,19.408-20.894,22.062-30.039c0.715-2.468,1.597-5.507,2.243-6.25c2.716,0.281,4.59,1.349,5.723,3.261  c3.583,6.046-0.964,19.237-3.018,23.81c-0.26,0.578-0.174,1.253,0.225,1.746c0.396,0.495,1.033,0.724,1.658,0.594  c0.051-0.012,5.181-1.073,10.725-1.073c4.401,0,10.08,0.675,12.132,3.888c1.356,2.122,1.058,5.327-0.888,9.528  c-0.325,0.7-0.132,1.531,0.468,2.018c1.948,1.577,2.901,3.169,2.833,4.733C91.504,63.698,88.282,65.901,88.254,65.921z"/><path d="M27.127,84.282c1.882,0,3.405-1.525,3.405-3.408s-1.523-3.406-3.405-3.406c-1.884,0-3.408,1.523-3.408,3.406  S25.243,84.282,27.127,84.282z"/><text x="0" y="115" fill="#000000" font-size="5px" font-weight="bold" font-family="'Helvetica Neue', Helvetica, Arial-Unicode, Arial, Sans-serif">Created by Milinda Courey</text><text x="0" y="120" fill="#000000" font-size="5px" font-weight="bold" font-family="'Helvetica Neue', Helvetica, Arial-Unicode, Arial, Sans-serif">from the Noun Project</text></svg>